<?xml version="1.0" encoding="UTF-8" standalone="no"?>
<!-- Created with Inkscape (http://www.inkscape.org/) -->

<svg
   xmlns:dc="http://purl.org/dc/elements/1.1/"
   xmlns:cc="http://creativecommons.org/ns#"
   xmlns:rdf="http://www.w3.org/1999/02/22-rdf-syntax-ns#"
   xmlns:svg="http://www.w3.org/2000/svg"
   xmlns="http://www.w3.org/2000/svg"
   xmlns:sodipodi="http://sodipodi.sourceforge.net/DTD/sodipodi-0.dtd"
   xmlns:inkscape="http://www.inkscape.org/namespaces/inkscape"
   id="svg7384"
   height="17.066668"
   width="17.066668"
   version="1.1"
   inkscape:version="0.92.1 r15371"
   sodipodi:docname="utext-not-preview.svg">
  <defs
     id="defs12" />
  <sodipodi:namedview
     pagecolor="#ffffff"
     bordercolor="#666666"
     borderopacity="1"
     objecttolerance="10"
     gridtolerance="10"
     guidetolerance="10"
     inkscape:pageopacity="0"
     inkscape:pageshadow="2"
     inkscape:window-width="1920"
     inkscape:window-height="1019"
     id="namedview10"
     showgrid="false"
     inkscape:zoom="7.375"
     inkscape:cx="30.364605"
     inkscape:cy="17.579836"
     inkscape:window-x="0"
     inkscape:window-y="27"
     inkscape:window-maximized="1"
     inkscape:current-layer="svg7384" />
  <metadata
     id="metadata90">
    <rdf:RDF>
      <cc:Work
         rdf:about="">
        <dc:format>image/svg+xml</dc:format>
        <dc:type
           rdf:resource="http://purl.org/dc/dcmitype/StillImage" />
        <dc:title>Gnome Symbolic Icon Theme</dc:title>
      </cc:Work>
    </rdf:RDF>
  </metadata>
  <title
     id="title9167">Gnome Symbolic Icon Theme</title>
  <path
     inkscape:connector-curvature="0"
     id="path5847"
     style="font-style:normal;font-variant:normal;font-weight:normal;font-stretch:normal;font-size:medium;line-height:1.25;font-family:FontAwesome;-inkscape-font-specification:FontAwesome;letter-spacing:0px;word-spacing:0px;fill:#000000;fill-opacity:1;stroke:none;stroke-width:0.12187292"
     d="M 6.0596037,11.253712 6.6254423,10.23085 Q 5.9943147,9.7738261 5.638852,9.0774095 5.2833893,8.3809928 5.2833893,7.6047784 q 0,-0.8777752 0.4425148,-1.6322266 Q 4.0646602,6.8213096 2.9620004,8.5333339 4.1734753,10.404954 6.0596037,11.253712 Z M 8.7799813,5.9943148 q 0.1015608,-0.1015607 0.1015608,-0.2466475 0,-0.1450868 -0.1015608,-0.2466476 -0.1015607,-0.1015608 -0.2466475,-0.1015608 -0.9067926,0 -1.5596832,0.6528907 -0.6456363,0.6456363 -0.6456363,1.5524288 0,0.1450868 0.1015608,0.2466476 0.1015608,0.1015607 0.2466476,0.1015607 0.1450868,0 0.2466475,-0.1015607 0.1015608,-0.1015608 0.1015608,-0.2466476 0,-0.6238733 0.4425148,-1.066388 0.4425147,-0.4425148 1.066388,-0.4425148 0.1450868,0 0.2466475,-0.1015608 z M 11.514868,4.3620883 q 0,0.05078 -0.0073,0.065289 -0.76896,1.3710704 -2.2923712,4.113211 -1.5234115,2.7421407 -2.2851172,4.1059567 l -0.3554627,0.645636 q -0.072543,0.11607 -0.2031215,0.11607 -0.087052,0 -0.9720816,-0.507804 -0.1160695,-0.07254 -0.1160695,-0.203122 0,-0.08705 0.319191,-0.631127 Q 4.5652096,11.594666 3.6874345,10.811197 2.8169136,10.027728 2.1785317,9.0338834 2.0334449,8.8089989 2.0334449,8.5333339 q 0,-0.2756649 0.1450868,-0.5005494 1.1099141,-1.70477 2.7566493,-2.6913603 1.6467352,-0.9865903 3.5981528,-0.9865903 0.6456363,0 1.3057812,0.1233238 l 0.391734,-0.703671 q 0.07254,-0.1160694 0.203122,-0.1160694 0.03627,0 0.130578,0.043526 0.09431,0.043526 0.224885,0.1160695 0.130578,0.065289 0.239393,0.1305781 0.108815,0.065289 0.224884,0.1378325 0.123324,0.065289 0.145087,0.079798 0.11607,0.072543 0.11607,0.1958669 z m 0.26841,3.2426901 q 0,1.0083533 -0.573093,1.8426024 -0.573093,0.8269952 -1.5161568,1.1897122 L 11.725244,6.9954138 q 0.05803,0.3264453 0.05803,0.6093646 z m 3.104858,0.4280061 q 0.145087,0.2466475 0.145087,0.5005494 0,0.253902 -0.145087,0.5005495 -0.282919,0.4642778 -0.790723,1.0518796 -1.088151,1.247746 -2.524511,1.936909 -1.429105,0.689162 -3.0395682,0.689162 L 9.070155,11.754261 q 1.53792,-0.130578 2.843701,-0.993845 1.313036,-0.8632661 2.190811,-2.2270821 -0.834249,-1.2985269 -2.045724,-2.132776 l 0.457024,-0.8124861 q 0.689162,0.4642778 1.32029,1.1099141 0.638381,0.6456362 1.051879,1.3347986 z" />
</svg>
