<?xml version="1.0" encoding="UTF-8" standalone="no"?>
<!-- Created with Inkscape (http://www.inkscape.org/) -->

<svg
   xmlns:dc="http://purl.org/dc/elements/1.1/"
   xmlns:cc="http://creativecommons.org/ns#"
   xmlns:rdf="http://www.w3.org/1999/02/22-rdf-syntax-ns#"
   xmlns:svg="http://www.w3.org/2000/svg"
   xmlns="http://www.w3.org/2000/svg"
   xmlns:sodipodi="http://sodipodi.sourceforge.net/DTD/sodipodi-0.dtd"
   xmlns:inkscape="http://www.inkscape.org/namespaces/inkscape"
   id="svg7384"
   height="17.066668"
   width="17.066668"
   version="1.1"
   inkscape:version="0.92.1 r15371"
   sodipodi:docname="utext-preview.svg">
  <defs
     id="defs12" />
  <sodipodi:namedview
     pagecolor="#ffffff"
     bordercolor="#666666"
     borderopacity="1"
     objecttolerance="10"
     gridtolerance="10"
     guidetolerance="10"
     inkscape:pageopacity="0"
     inkscape:pageshadow="2"
     inkscape:window-width="1920"
     inkscape:window-height="1019"
     id="namedview10"
     showgrid="false"
     inkscape:zoom="7.375"
     inkscape:cx="30.364605"
     inkscape:cy="17.579836"
     inkscape:window-x="0"
     inkscape:window-y="27"
     inkscape:window-maximized="1"
     inkscape:current-layer="svg7384" />
  <metadata
     id="metadata90">
    <rdf:RDF>
      <cc:Work
         rdf:about="">
        <dc:format>image/svg+xml</dc:format>
        <dc:type
           rdf:resource="http://purl.org/dc/dcmitype/StillImage" />
        <dc:title>Gnome Symbolic Icon Theme</dc:title>
      </cc:Work>
    </rdf:RDF>
  </metadata>
  <title
     id="title9167">Gnome Symbolic Icon Theme</title>
  <path
     inkscape:connector-curvature="0"
     id="path5798"
     style="font-style:normal;font-variant:normal;font-weight:normal;font-stretch:normal;font-size:medium;line-height:1.25;font-family:FontAwesome;-inkscape-font-specification:FontAwesome;letter-spacing:0px;word-spacing:0px;fill:#000000;fill-opacity:1;stroke:none;stroke-width:0.12187292"
     d="m 14.104667,8.5333339 q -1.10266,-1.7120243 -2.763904,-2.5607821 0.442515,0.7544514 0.442515,1.6322266 0,1.3420529 -0.957573,2.2996259 -0.9503183,0.9503187 -2.2923712,0.9503187 -1.342053,0 -2.2996259,-0.9503187 -0.9503186,-0.957573 -0.9503186,-2.2996259 0,-0.8777752 0.4425148,-1.6322266 -1.6612439,0.8487578 -2.7639037,2.5607821 0.9648273,1.4871401 2.4156954,2.3721691 1.4581224,0.877775 3.155638,0.877775 1.6975152,0 3.1483832,-0.877775 1.458123,-0.885029 2.42295,-2.3721691 z M 8.7799813,5.9943148 q 0.1015608,-0.1015607 0.1015608,-0.2466475 0,-0.1450868 -0.1015608,-0.2466476 -0.1015607,-0.1015608 -0.2466475,-0.1015608 -0.9067926,0 -1.5596832,0.6528907 -0.6456363,0.6456363 -0.6456363,1.5524288 0,0.1450868 0.1015608,0.2466476 0.1015608,0.1015607 0.2466476,0.1015607 0.1450868,0 0.2466475,-0.1015607 0.1015608,-0.1015608 0.1015608,-0.2466476 0,-0.6238733 0.4425148,-1.066388 0.4425147,-0.4425148 1.066388,-0.4425148 0.1450868,0 0.2466475,-0.1015608 z m 6.1081547,2.0384697 q 0.145087,0.2539019 0.145087,0.5005494 0,0.2466476 -0.145087,0.5005495 -1.015608,1.6684986 -2.734886,2.6768516 -1.712025,1.001099 -3.6199162,1.001099 -1.9078915,0 -3.6271702,-1.008353 Q 3.1941393,10.695127 2.1785317,9.0338834 2.0334449,8.7799815 2.0334449,8.5333339 q 0,-0.2466475 0.1450868,-0.5005494 1.0156076,-1.661244 2.7276319,-2.6695973 1.7192787,-1.0083533 3.6271702,-1.0083533 1.9078912,0 3.6199162,1.0083533 1.719278,1.0083533 2.734886,2.6695973 z" />
</svg>
